<svg width="6" height="6" viewBox="0 0 6 6" fill="none" xmlns="http://www.w3.org/2000/svg">
<path d="M2.99991 0C1.34327 0 0 1.34318 0 2.99991C0 4.65663 1.34327 5.99981 2.99991 5.99981C4.65693 5.99981 6 4.65664 6 2.99991C6 1.34317 4.65693 0 2.99991 0ZM3.52666 4.37719C3.40532 4.51186 3.33577 4.5919 3.20479 4.71711C3.00653 4.90669 2.78141 4.95716 2.60639 4.77004C2.35482 4.50098 2.61867 3.68249 2.62511 3.65149C2.67236 3.43395 2.76667 2.99914 2.76667 2.99914C2.76667 2.99914 2.56291 3.12388 2.44195 3.16812C2.35274 3.20072 2.25182 3.15791 2.22687 3.07162C2.20362 2.99168 2.22213 2.94083 2.27109 2.88621C2.39243 2.75163 2.46198 2.67159 2.59297 2.54638C2.79142 2.35671 3.01635 2.30634 3.19137 2.49336C3.44293 2.76241 3.25732 3.20507 3.19212 3.51872C3.1857 3.54981 3.03108 4.26435 3.03108 4.26435C3.03108 4.26435 3.23483 4.1396 3.35579 4.09528C3.44518 4.06277 3.54612 4.10568 3.57107 4.19187C3.59433 4.27182 3.57562 4.32266 3.52666 4.37719ZM3.2012 2.06385C2.92129 2.08841 2.67463 1.88146 2.65005 1.60134C2.62568 1.32152 2.83263 1.07477 3.11256 1.0504C3.39229 1.02582 3.63913 1.23298 3.66352 1.5128C3.68808 1.79263 3.48093 2.03947 3.2012 2.06385Z" fill="#E79668"/>
</svg>
