<svg width="15" height="41" viewBox="0 0 15 41" fill="none" xmlns="http://www.w3.org/2000/svg">
<path d="M10.1921 11.2923C13.0899 11.0389 15.2347 8.48366 14.9796 5.5859C14.728 2.68807 12.1728 0.544119 9.27495 0.797459C6.37712 1.05088 4.23231 3.60523 4.48565 6.50306C4.73915 9.40268 7.29435 11.5457 10.1921 11.2923Z" fill="black" class="svg-elem-1"></path>
<path d="M11.7942 32.3264C10.5416 32.785 8.43068 34.0769 8.43068 34.0769C8.43068 34.0769 10.0312 26.6781 10.0973 26.3559C10.7735 23.1083 12.6954 18.5252 10.0919 15.7389C8.27905 13.8029 5.94861 14.3239 3.8948 16.2885C2.53866 17.5848 1.81956 18.4137 0.563424 19.8073C0.0548828 20.372 -0.13782 20.8993 0.103019 21.7263C0.361715 22.6204 1.40737 23.0638 2.33167 22.7256C3.58432 22.268 5.69348 20.9761 5.69348 20.9761C5.69348 20.9761 4.71561 25.479 4.22849 27.7308C4.16064 28.052 1.4288 36.5268 4.03401 39.3131C5.8469 41.2501 8.17555 40.7282 10.2311 38.7645C11.5873 37.4681 12.3064 36.6393 13.5625 35.2448C14.0711 34.6809 14.262 34.1536 14.0229 33.3266C13.7624 32.4335 12.7185 31.9892 11.7942 32.3264Z" fill="black" class="svg-elem-2"></path>
</svg>
