<svg width="182" height="57" viewBox="0 0 182 57" fill="none" xmlns="http://www.w3.org/2000/svg">
<path d="M3.92898 40V16.7273H13.2472C14.9593 16.7273 16.3873 16.9811 17.5312 17.4886C18.6752 17.9962 19.535 18.7008 20.1108 19.6023C20.6866 20.4962 20.9744 21.5265 20.9744 22.6932C20.9744 23.6023 20.7926 24.4015 20.429 25.0909C20.0653 25.7727 19.5653 26.3333 18.929 26.7727C18.3002 27.2045 17.5805 27.5114 16.7699 27.6932V27.9205C17.6563 27.9583 18.4858 28.2083 19.2585 28.6705C20.0388 29.1326 20.6714 29.7803 21.1562 30.6136C21.6411 31.4394 21.8835 32.4242 21.8835 33.5682C21.8835 34.803 21.5767 35.9053 20.9631 36.875C20.357 37.8371 19.4593 38.5985 18.2699 39.1591C17.0805 39.7197 15.6146 40 13.8722 40H3.92898ZM8.84943 35.9773H12.8608C14.232 35.9773 15.232 35.7159 15.8608 35.1932C16.4896 34.6629 16.804 33.9583 16.804 33.0795C16.804 32.4356 16.6487 31.8674 16.3381 31.375C16.0275 30.8826 15.5843 30.4962 15.0085 30.2159C14.4403 29.9356 13.7623 29.7955 12.9744 29.7955H8.84943V35.9773ZM8.84943 26.4659H12.4972C13.1714 26.4659 13.7699 26.3485 14.2926 26.1136C14.8229 25.8712 15.2396 25.5303 15.5426 25.0909C15.8532 24.6515 16.0085 24.125 16.0085 23.5114C16.0085 22.6705 15.7093 21.9924 15.1108 21.4773C14.5199 20.9621 13.679 20.7045 12.5881 20.7045H8.84943V26.4659ZM36.1875 32.5682V22.5455H41.0284V40H36.3807V36.8295H36.1989C35.8049 37.8523 35.1496 38.6742 34.233 39.2955C33.3239 39.9167 32.214 40.2273 30.9034 40.2273C29.7367 40.2273 28.7102 39.9621 27.8239 39.4318C26.9375 38.9015 26.2443 38.1477 25.7443 37.1705C25.2519 36.1932 25.0019 35.0227 24.9943 33.6591V22.5455H29.8352V32.7955C29.8428 33.8258 30.1193 34.6402 30.6648 35.2386C31.2102 35.8371 31.9413 36.1364 32.858 36.1364C33.4413 36.1364 33.9867 36.0038 34.4943 35.7386C35.0019 35.4659 35.411 35.0644 35.7216 34.5341C36.0398 34.0038 36.1951 33.3485 36.1875 32.5682ZM51.3324 40.2841C50.0066 40.2841 48.8059 39.9432 47.7301 39.2614C46.6619 38.572 45.8134 37.5606 45.1847 36.2273C44.5634 34.8864 44.2528 33.2424 44.2528 31.2955C44.2528 29.2955 44.5748 27.6326 45.2188 26.3068C45.8627 24.9735 46.7188 23.9773 47.7869 23.3182C48.8627 22.6515 50.0407 22.3182 51.321 22.3182C52.2983 22.3182 53.1127 22.4848 53.7642 22.8182C54.4233 23.1439 54.9536 23.553 55.3551 24.0455C55.7642 24.5303 56.0748 25.0076 56.2869 25.4773H56.4347V16.7273H61.2642V40H56.4915V37.2045H56.2869C56.0597 37.6894 55.7377 38.1705 55.321 38.6477C54.9119 39.1174 54.3778 39.5076 53.7188 39.8182C53.0672 40.1288 52.2718 40.2841 51.3324 40.2841ZM52.8665 36.4318C53.6468 36.4318 54.3059 36.2197 54.8438 35.7955C55.3892 35.3636 55.8059 34.7614 56.0938 33.9886C56.3892 33.2159 56.5369 32.3106 56.5369 31.2727C56.5369 30.2348 56.393 29.3333 56.1051 28.5682C55.8172 27.803 55.4006 27.2121 54.8551 26.7955C54.3097 26.3788 53.6468 26.1705 52.8665 26.1705C52.071 26.1705 51.4006 26.3864 50.8551 26.8182C50.3097 27.25 49.8968 27.8485 49.6165 28.6136C49.3362 29.3788 49.196 30.2652 49.196 31.2727C49.196 32.2879 49.3362 33.1856 49.6165 33.9659C49.9044 34.7386 50.3172 35.3447 50.8551 35.7841C51.4006 36.2159 52.071 36.4318 52.8665 36.4318ZM65.3352 40V16.7273H70.2557V26.3295H80.2443V16.7273H85.1534V40H80.2443V30.3864H70.2557V40H65.3352ZM89.1193 22.5455H93.9602V40.8636C93.9602 42.2121 93.6951 43.303 93.1648 44.1364C92.6345 44.9697 91.8731 45.5795 90.8807 45.9659C89.8958 46.3523 88.7178 46.5455 87.3466 46.5455C87.1799 46.5455 87.0208 46.5417 86.8693 46.5341C86.7102 46.5341 86.5436 46.5303 86.3693 46.5227V42.7386C86.4981 42.7462 86.6117 42.75 86.7102 42.75C86.8011 42.7576 86.8996 42.7614 87.0057 42.7614C87.786 42.7614 88.3314 42.5947 88.642 42.2614C88.9602 41.9356 89.1193 41.4432 89.1193 40.7841V22.5455ZM91.5284 20.2955C90.8163 20.2955 90.2027 20.0568 89.6875 19.5795C89.1723 19.0947 88.9148 18.5152 88.9148 17.8409C88.9148 17.1742 89.1723 16.6023 89.6875 16.125C90.2027 15.6402 90.8163 15.3977 91.5284 15.3977C92.2557 15.3977 92.8731 15.6402 93.3807 16.125C93.8958 16.6023 94.1534 17.1742 94.1534 17.8409C94.1534 18.5152 93.8958 19.0947 93.3807 19.5795C92.8731 20.0568 92.2557 20.2955 91.5284 20.2955ZM100.554 41.1136L98.3381 39.6136L110.872 21.5682L113.111 23.0682L100.554 41.1136ZM105.724 40.3636C103.959 40.3636 102.433 39.9886 101.145 39.2386C99.8646 38.4811 98.8759 37.428 98.179 36.0795C97.482 34.7311 97.1335 33.1591 97.1335 31.3636C97.1335 29.5606 97.482 27.9848 98.179 26.6364C98.8759 25.2803 99.8646 24.2273 101.145 23.4773C102.433 22.7197 103.959 22.3409 105.724 22.3409C107.49 22.3409 109.012 22.7197 110.293 23.4773C111.58 24.2273 112.573 25.2803 113.27 26.6364C113.967 27.9848 114.315 29.5606 114.315 31.3636C114.315 33.1591 113.967 34.7311 113.27 36.0795C112.573 37.428 111.58 38.4811 110.293 39.2386C109.012 39.9886 107.49 40.3636 105.724 40.3636ZM105.747 36.6136C106.55 36.6136 107.221 36.3864 107.759 35.9318C108.296 35.4697 108.702 34.8409 108.974 34.0455C109.255 33.25 109.395 32.3485 109.395 31.3409C109.395 30.3182 109.255 29.4091 108.974 28.6136C108.702 27.8182 108.296 27.1894 107.759 26.7273C107.221 26.2652 106.55 26.0341 105.747 26.0341C104.937 26.0341 104.255 26.2652 103.702 26.7273C103.156 27.1894 102.743 27.8182 102.463 28.6136C102.19 29.4091 102.054 30.3182 102.054 31.3409C102.054 32.3485 102.19 33.25 102.463 34.0455C102.743 34.8409 103.156 35.4697 103.702 35.9318C104.255 36.3864 104.937 36.6136 105.747 36.6136ZM117.463 40V22.5455H122.156V25.5909H122.338C122.656 24.5076 123.19 23.6894 123.94 23.1364C124.69 22.5758 125.554 22.2955 126.531 22.2955C126.774 22.2955 127.035 22.3106 127.315 22.3409C127.596 22.3712 127.842 22.4129 128.054 22.4659V26.7614C127.827 26.6932 127.512 26.6326 127.111 26.5795C126.709 26.5265 126.342 26.5 126.009 26.5C125.296 26.5 124.66 26.6553 124.099 26.9659C123.546 27.2689 123.107 27.6932 122.781 28.2386C122.463 28.7841 122.304 29.4129 122.304 30.125V40H117.463ZM135.398 29.9091V40H130.557V22.5455H135.17V25.625H135.375C135.761 24.6098 136.409 23.8068 137.318 23.2159C138.227 22.6174 139.33 22.3182 140.625 22.3182C141.837 22.3182 142.894 22.5833 143.795 23.1136C144.697 23.6439 145.398 24.4015 145.898 25.3864C146.398 26.3636 146.648 27.5303 146.648 28.8864V40H141.807V29.75C141.814 28.6818 141.542 27.8485 140.989 27.25C140.436 26.6439 139.674 26.3409 138.705 26.3409C138.053 26.3409 137.477 26.4811 136.977 26.7614C136.485 27.0417 136.098 27.4508 135.818 27.9886C135.545 28.5189 135.405 29.1591 135.398 29.9091ZM158.418 40.3409C156.622 40.3409 155.077 39.9773 153.781 39.25C152.493 38.5152 151.501 37.4773 150.804 36.1364C150.107 34.7879 149.759 33.1932 149.759 31.3523C149.759 29.5568 150.107 27.9811 150.804 26.625C151.501 25.2689 152.482 24.2121 153.747 23.4545C155.02 22.697 156.512 22.3182 158.224 22.3182C159.376 22.3182 160.448 22.5038 161.44 22.875C162.44 23.2386 163.312 23.7879 164.054 24.5227C164.804 25.2576 165.387 26.1818 165.804 27.2955C166.221 28.4015 166.429 29.697 166.429 31.1818V32.5114H151.69V29.5114H161.872C161.872 28.8144 161.721 28.197 161.418 27.6591C161.115 27.1212 160.694 26.7008 160.156 26.3977C159.626 26.0871 159.009 25.9318 158.304 25.9318C157.569 25.9318 156.918 26.1023 156.349 26.4432C155.789 26.7765 155.349 27.2273 155.031 27.7955C154.713 28.3561 154.55 28.9811 154.543 29.6705V32.5227C154.543 33.3864 154.702 34.1326 155.02 34.7614C155.346 35.3902 155.804 35.875 156.395 36.2159C156.986 36.5568 157.687 36.7273 158.497 36.7273C159.035 36.7273 159.527 36.6515 159.974 36.5C160.421 36.3485 160.804 36.1212 161.122 35.8182C161.44 35.5152 161.683 35.1439 161.849 34.7045L166.327 35C166.099 36.0758 165.634 37.0152 164.929 37.8182C164.232 38.6136 163.33 39.2348 162.224 39.6818C161.126 40.1212 159.857 40.3409 158.418 40.3409ZM178.872 22.5455V26.1818H168.361V22.5455H178.872ZM170.747 18.3636H175.588V34.6364C175.588 35.0833 175.656 35.4318 175.793 35.6818C175.929 35.9242 176.118 36.0947 176.361 36.1932C176.611 36.2917 176.899 36.3409 177.224 36.3409C177.452 36.3409 177.679 36.322 177.906 36.2841C178.134 36.2386 178.308 36.2045 178.429 36.1818L179.19 39.7841C178.948 39.8598 178.607 39.947 178.168 40.0455C177.728 40.1515 177.194 40.2159 176.565 40.2386C175.399 40.2841 174.376 40.1288 173.497 39.7727C172.626 39.4167 171.948 38.8636 171.463 38.1136C170.978 37.3636 170.74 36.4167 170.747 35.2727V18.3636Z" fill="black"/>
</svg>
