<svg width="107" height="36" viewBox="0 0 107 36" fill="none" xmlns="http://www.w3.org/2000/svg">
<path d="M16.2356 10.12H20.0156C20.6816 10.12 21.3026 10.21 21.8786 10.39C22.4546 10.57 22.9196 10.87 23.2736 11.29C23.6336 11.71 23.8136 12.283 23.8136 13.009C23.8136 13.495 23.7206 13.93 23.5346 14.314C23.3486 14.698 23.1116 15.013 22.8236 15.259C22.5356 15.499 22.2326 15.652 21.9146 15.718C22.1846 15.748 22.4606 15.829 22.7426 15.961C23.0246 16.093 23.2856 16.276 23.5256 16.51C23.7656 16.744 23.9576 17.038 24.1016 17.392C24.2516 17.746 24.3266 18.16 24.3266 18.634C24.3266 19.294 24.1826 19.879 23.8946 20.389C23.6126 20.893 23.1926 21.289 22.6346 21.577C22.0826 21.859 21.3956 22 20.5736 22H16.2356V10.12ZM18.4856 20.182H20.1146C20.5706 20.182 20.9336 20.107 21.2036 19.957C21.4796 19.807 21.6776 19.603 21.7976 19.345C21.9176 19.087 21.9776 18.793 21.9776 18.463C21.9776 17.935 21.8096 17.53 21.4736 17.248C21.1376 16.966 20.6606 16.825 20.0426 16.825H18.4856V20.182ZM18.4856 15.043H19.9166C20.2886 15.043 20.5946 14.971 20.8346 14.827C21.0806 14.677 21.2666 14.479 21.3926 14.233C21.5186 13.981 21.5816 13.708 21.5816 13.414C21.5816 12.85 21.4166 12.463 21.0866 12.253C20.7626 12.043 20.3216 11.938 19.7636 11.938H18.4856V15.043ZM27.1405 18.148C27.1405 18.808 27.2725 19.336 27.5365 19.732C27.8005 20.122 28.2265 20.317 28.8145 20.317C29.4085 20.317 29.8375 20.122 30.1015 19.732C30.3655 19.336 30.4975 18.808 30.4975 18.148V14.611H32.7475V18.409C32.7475 19.171 32.5945 19.84 32.2885 20.416C31.9825 20.986 31.5355 21.43 30.9475 21.748C30.3655 22.06 29.6545 22.216 28.8145 22.216C27.9805 22.216 27.2695 22.06 26.6815 21.748C26.0995 21.43 25.6555 20.986 25.3495 20.416C25.0435 19.84 24.8905 19.171 24.8905 18.409V14.611H27.1405V18.148ZM36.7197 22.216C36.0177 22.216 35.3997 22.048 34.8657 21.712C34.3377 21.37 33.9237 20.905 33.6237 20.317C33.3297 19.723 33.1827 19.054 33.1827 18.31C33.1827 17.566 33.3297 16.9 33.6237 16.312C33.9237 15.718 34.3377 15.25 34.8657 14.908C35.3997 14.566 36.0177 14.395 36.7197 14.395C37.2177 14.395 37.6587 14.476 38.0427 14.638C38.4327 14.8 38.7447 14.992 38.9787 15.214C39.2127 15.436 39.3507 15.634 39.3927 15.808V9.616H41.6877V22H39.4197V20.713C39.3237 20.923 39.1467 21.145 38.8887 21.379C38.6307 21.613 38.3157 21.811 37.9437 21.973C37.5717 22.135 37.1637 22.216 36.7197 22.216ZM37.3677 20.398C37.7517 20.398 38.0967 20.311 38.4027 20.137C38.7087 19.957 38.9487 19.711 39.1227 19.399C39.3027 19.081 39.3927 18.718 39.3927 18.31C39.3927 17.902 39.3027 17.542 39.1227 17.23C38.9487 16.912 38.7087 16.663 38.4027 16.483C38.0967 16.303 37.7517 16.213 37.3677 16.213C37.0137 16.213 36.6897 16.303 36.3957 16.483C36.1017 16.657 35.8647 16.903 35.6847 17.221C35.5107 17.533 35.4237 17.896 35.4237 18.31C35.4237 18.724 35.5107 19.09 35.6847 19.408C35.8647 19.72 36.1017 19.963 36.3957 20.137C36.6897 20.311 37.0137 20.398 37.3677 20.398ZM49.2103 17.032H44.4943V22H42.2623V10.12H44.4943V15.052H49.2103V10.12H51.4423V22H49.2103V17.032ZM52.4654 25.96C51.9794 25.96 51.5774 25.909 51.2594 25.807C50.9354 25.711 50.6954 25.612 50.5394 25.51L51.2864 23.8C51.3764 23.872 51.4754 23.926 51.5834 23.962C51.6854 24.004 51.8174 24.025 51.9794 24.025C52.1834 24.025 52.3454 23.965 52.4654 23.845C52.5914 23.731 52.6814 23.563 52.7354 23.341C52.7894 23.119 52.8164 22.852 52.8164 22.54V14.611H55.1024V22.954C55.1024 23.53 55.0124 24.043 54.8324 24.493C54.6584 24.949 54.3764 25.306 53.9864 25.564C53.6024 25.828 53.0954 25.96 52.4654 25.96ZM53.9954 12.703C53.6234 12.703 53.3054 12.571 53.0414 12.307C52.7774 12.043 52.6454 11.728 52.6454 11.362C52.6454 11.116 52.7054 10.891 52.8254 10.687C52.9514 10.483 53.1164 10.318 53.3204 10.192C53.5244 10.066 53.7494 10.003 53.9954 10.003C54.2414 10.003 54.4664 10.066 54.6704 10.192C54.8744 10.312 55.0364 10.474 55.1564 10.678C55.2824 10.882 55.3454 11.11 55.3454 11.362C55.3454 11.728 55.2134 12.043 54.9494 12.307C54.6854 12.571 54.3674 12.703 53.9954 12.703ZM63.073 14.206L63.739 14.791L56.296 22.351L55.63 21.766L63.073 14.206ZM59.725 22.216C58.939 22.216 58.237 22.048 57.619 21.712C57.007 21.376 56.527 20.917 56.179 20.335C55.831 19.747 55.657 19.078 55.657 18.328C55.657 17.578 55.831 16.909 56.179 16.321C56.527 15.727 57.007 15.259 57.619 14.917C58.237 14.569 58.939 14.395 59.725 14.395C60.517 14.395 61.216 14.569 61.822 14.917C62.428 15.259 62.902 15.727 63.244 16.321C63.586 16.909 63.757 17.578 63.757 18.328C63.757 19.078 63.586 19.747 63.244 20.335C62.902 20.917 62.428 21.376 61.822 21.712C61.216 22.048 60.517 22.216 59.725 22.216ZM59.725 20.317C60.103 20.317 60.43 20.233 60.706 20.065C60.988 19.891 61.204 19.654 61.354 19.354C61.51 19.048 61.588 18.703 61.588 18.319C61.588 17.935 61.51 17.59 61.354 17.284C61.204 16.978 60.988 16.738 60.706 16.564C60.43 16.384 60.103 16.294 59.725 16.294C59.347 16.294 59.017 16.384 58.735 16.564C58.459 16.738 58.243 16.978 58.087 17.284C57.931 17.59 57.853 17.935 57.853 18.319C57.853 18.703 57.931 19.048 58.087 19.354C58.243 19.654 58.459 19.891 58.735 20.065C59.017 20.233 59.347 20.317 59.725 20.317ZM66.2037 22H63.9177V14.611H66.2037V15.808H66.1587C66.2007 15.664 66.3147 15.481 66.5007 15.259C66.6927 15.037 66.9567 14.839 67.2927 14.665C67.6287 14.485 68.0337 14.395 68.5077 14.395C68.8497 14.395 69.1587 14.446 69.4347 14.548C69.7167 14.644 69.9177 14.74 70.0377 14.836L69.1377 16.708C69.0597 16.612 68.9127 16.513 68.6967 16.411C68.4867 16.309 68.2227 16.258 67.9047 16.258C67.5267 16.258 67.2117 16.363 66.9597 16.573C66.7077 16.777 66.5187 17.029 66.3927 17.329C66.2667 17.623 66.2037 17.899 66.2037 18.157V22ZM74.5271 14.395C75.0311 14.395 75.5231 14.5 76.0031 14.71C76.4831 14.914 76.8761 15.241 77.1821 15.691C77.4941 16.141 77.6501 16.729 77.6501 17.455V22H75.3551V17.851C75.3551 17.245 75.2111 16.795 74.9231 16.501C74.6411 16.207 74.2691 16.06 73.8071 16.06C73.5071 16.06 73.2191 16.144 72.9431 16.312C72.6731 16.474 72.4511 16.702 72.2771 16.996C72.1091 17.284 72.0251 17.614 72.0251 17.986V22H69.7391V14.611H72.0251V15.79C72.0911 15.586 72.2411 15.376 72.4751 15.16C72.7091 14.944 73.0061 14.764 73.3661 14.62C73.7261 14.47 74.1131 14.395 74.5271 14.395ZM80.0473 18.814C80.0653 19.15 80.1553 19.45 80.3173 19.714C80.4793 19.978 80.7133 20.185 81.0193 20.335C81.3313 20.485 81.7033 20.56 82.1353 20.56C82.5253 20.56 82.8673 20.512 83.1613 20.416C83.4613 20.32 83.7133 20.203 83.9173 20.065C84.1273 19.921 84.2833 19.783 84.3853 19.651L85.3303 21.055C85.1623 21.265 84.9373 21.46 84.6553 21.64C84.3793 21.814 84.0253 21.952 83.5933 22.054C83.1673 22.162 82.6333 22.216 81.9913 22.216C81.1813 22.216 80.4703 22.057 79.8583 21.739C79.2463 21.421 78.7693 20.962 78.4273 20.362C78.0853 19.762 77.9143 19.048 77.9143 18.22C77.9143 17.5 78.0673 16.852 78.3733 16.276C78.6793 15.694 79.1233 15.235 79.7053 14.899C80.2933 14.563 80.9983 14.395 81.8203 14.395C82.5943 14.395 83.2633 14.545 83.8273 14.845C84.3973 15.139 84.8383 15.571 85.1503 16.141C85.4623 16.711 85.6183 17.407 85.6183 18.229C85.6183 18.277 85.6153 18.376 85.6093 18.526C85.6093 18.67 85.6033 18.766 85.5913 18.814H80.0473ZM83.4763 17.401C83.4703 17.209 83.4103 17.002 83.2963 16.78C83.1883 16.558 83.0173 16.369 82.7833 16.213C82.5493 16.057 82.2373 15.979 81.8473 15.979C81.4573 15.979 81.1363 16.054 80.8843 16.204C80.6383 16.354 80.4523 16.54 80.3263 16.762C80.2003 16.978 80.1283 17.191 80.1103 17.401H83.4763ZM85.4429 14.611H86.7749V11.578H89.0429V14.611H90.7889V16.51H89.0429V19.183C89.0429 19.537 89.0999 19.813 89.2139 20.011C89.3279 20.203 89.5079 20.299 89.7539 20.299C89.9399 20.299 90.0929 20.263 90.2129 20.191C90.3329 20.113 90.4049 20.059 90.4289 20.029L91.2389 21.667C91.2029 21.703 91.0859 21.766 90.8879 21.856C90.6959 21.946 90.4469 22.027 90.1409 22.099C89.8409 22.177 89.5019 22.216 89.1239 22.216C88.4459 22.216 87.8849 22.021 87.4409 21.631C86.9969 21.235 86.7749 20.623 86.7749 19.795V16.51H85.4429V14.611Z" fill="#1E1E1E"/>
</svg>
